<?xml version="1.0" encoding="iso-8859-1"?>
<!-- Generator: Adobe Illustrator 19.0.0, SVG Export Plug-In . SVG Version: 6.00 Build 0)  -->
<svg version="1.1" id="Layer_1" xmlns="http://www.w3.org/2000/svg" xmlns:xlink="http://www.w3.org/1999/xlink" x="0px" y="0px"
	 viewBox="0 0 512 512" style="enable-background:new 0 0 512 512;" xml:space="preserve">
<path style="fill:#EB305B;" d="M511.999,255.405c0.089,41.959-9.904,81.575-27.724,116.56c-2.443,4.808-5.041,9.538-7.794,14.168
	c-4.996,8.472-10.481,16.632-16.41,24.438c-3.131,4.13-6.384,8.15-9.76,12.069c-0.633,0.755-1.288,1.51-1.943,2.254
	c-8.583,9.771-17.909,18.886-27.869,27.247c-42.414,35.63-96.564,57.736-155.832,59.713c-2.676,0.089-5.374,0.133-8.072,0.144
	c-2.842,0.011-5.663-0.033-8.483-0.122c-59.157-1.788-113.296-23.661-155.788-59.046c-9.971-8.294-19.308-17.343-27.913-27.047
	c-39.949-45.045-64.265-104.269-64.409-169.2C-0.321,115.195,114.03,0.323,255.417,0.001
	C396.793-0.321,511.677,114.018,511.999,255.405z"/>
<path style="fill:#F2F2F2;" d="M421.53,452.115c-34.608,29.068-77.022,49.142-123.678,56.615
	c-7.117,1.144-14.345,1.987-21.651,2.532c-3.475,0.255-6.984,0.444-10.504,0.566c-0.344,0.011-0.688,0.022-1.033,0.022
	c-2.332,0.078-4.686,0.111-7.039,0.122c-2.476,0.011-4.941-0.022-7.395-0.1c-0.366,0-0.722-0.011-1.088-0.022
	c-4.219-0.133-8.405-0.355-12.569-0.688c-6.606-0.522-13.135-1.299-19.586-2.309c-34.442-5.407-66.608-17.698-95.054-35.419
	c-0.044-0.022-0.078-0.044-0.122-0.078c-1.244-0.777-2.487-1.554-3.708-2.354c-8.616-5.574-16.888-11.658-24.749-18.198
	c20.163-20.807,44.246-37.784,71.071-49.764c4.197-1.876,8.472-3.631,12.813-5.252c0.266-0.111,0.544-0.211,0.811-0.311
	c4.019-1.51,8.105-2.887,12.236-4.164c4.83-1.488,9.726-2.82,14.678-3.986c8.616-2.032,17.41-3.575,26.37-4.597
	c5.874-0.688,11.803-1.133,17.809-1.355c2.687-0.111,5.385-0.155,8.105-0.167c2.831-0.011,5.651,0.033,8.449,0.144
	c19.808,0.666,38.983,3.853,57.203,9.249c4.563,1.355,9.071,2.842,13.512,4.475c4.697,1.721,9.327,3.586,13.879,5.596
	c26.759,11.825,50.819,28.624,71.016,49.22C421.374,451.97,421.452,452.037,421.53,452.115z"/>
<path style="fill:#E0B775;" d="M322.997,401.729c-11.814,12.413-12.58,17.421-28.313,23.428c-0.733,0.289-1.466,0.566-2.198,0.822
	c-11.17,4.008-23.083,6.151-35.441,6.151c-12.369,0-24.283-2.143-35.441-6.151c-0.744-0.255-1.477-0.533-2.21-0.822
	c-15.567-5.929-17.909-12.868-29.634-25.093c4.019-1.51-3.597-5.474,0.533-6.751c4.83-1.488,9.726-2.82,14.678-3.986
	c8.616-2.032,17.41-3.575,26.37-4.597c5.874-0.688,11.803-1.133,17.809-1.355c2.687-0.111,5.385-0.155,8.105-0.167
	c2.831-0.011,5.651,0.033,8.449,0.144c19.808,0.666,38.983,3.853,57.203,9.249C327.472,393.957,318.556,400.097,322.997,401.729z"/>
<path style="fill:#E6E6E6;" d="M231.346,384.731l-11.947,14.645c0,0-63.077,25.726-97.463,74.058
	c-10.004-6.218-19.553-13.124-28.568-20.63c29.878-30.822,68.373-53.273,111.608-63.477
	C213.592,387.296,222.385,385.753,231.346,384.731z"/>
<g>
	<path style="fill:#DD9033;" d="M216.992,508.853c-14.401-2.265-28.402-5.729-41.892-10.293
		c-18.798-6.34-36.607-14.812-53.162-25.126c-0.044-0.022-0.078-0.044-0.122-0.078c-1.244-0.777-2.487-1.554-3.708-2.354
		c-8.616-5.574-16.888-11.658-24.749-18.198c15.977-16.488,34.42-36.13,54.738-47.21c5.318-2.909,10.77-0.067,16.333-2.554
		c4.197-1.876,8.472-3.631,12.813-5.252L216.992,508.853z"/>
	<path style="fill:#DD9033;" d="M421.533,452.116c-34.608,29.068-77.022,49.142-123.678,56.615l52.44-111.608
		c26.758,11.825,50.819,34.175,71.015,54.772C421.378,451.972,421.455,452.038,421.533,452.116z"/>
</g>
<g>
	<path style="fill:#E6E6E6;" d="M257.446,429.41l-41.77,41.77l-40.393-81.852l30.756-16.655c0,0,12.058,34.009,33.565,49.453
		C244.977,425.99,250.939,428.688,257.446,429.41z"/>
	<path style="fill:#E6E6E6;" d="M339.609,389.328l-40.393,81.852l-41.77-41.77c6.506-0.722,12.469-3.42,17.843-7.284
		c21.507-15.444,33.565-49.453,33.565-49.453L339.609,389.328z"/>
</g>
<g>
	<path style="fill:#F0A037;" d="M175.099,498.56l7.628-23.283H157.19l-9.093-64.132l-1.454-10.259l43.646-23.672l26.703,131.638
		C202.591,506.588,188.59,503.124,175.099,498.56z"/>
	<path style="fill:#F0A037;" d="M339.748,498.56l-7.628-23.283h25.537l9.093-64.132l1.454-10.259l-43.646-23.672l-26.703,131.638
		C312.256,506.588,326.257,503.124,339.748,498.56z"/>
</g>
<path style="fill:#E6E6E6;" d="M264.665,435.038v76.811c-2.332,0.078-4.686,0.111-7.039,0.122c-2.476,0.011-4.941-0.022-7.395-0.1
	v-76.834L264.665,435.038L264.665,435.038z"/>
<g>
	<polygon style="fill:#518EBC;" points="296.788,413.701 257.446,430.635 218.103,413.701 218.103,457.668 257.446,440.734 
		296.788,457.668 	"/>
	<circle style="fill:#518EBC;" cx="257.448" cy="467.518" r="6.384"/>
	<circle style="fill:#518EBC;" cx="257.448" cy="495.276" r="6.384"/>
</g>
<g>
	<path style="fill:#EFC881;" d="M187.235,242.857c0-17.945-16.76-32.492-37.435-32.492s-37.435,14.547-37.435,32.492
		s16.76,45.1,37.435,45.1S187.235,260.802,187.235,242.857z"/>
	<path style="fill:#EFC881;" d="M399.638,242.857c0-17.945-16.76-32.492-37.435-32.492c-20.675,0-37.435,14.547-37.435,32.492
		s16.76,45.1,37.435,45.1C382.878,287.956,399.638,260.802,399.638,242.857z"/>
</g>
<g>
	<path style="fill:#E0B775;" d="M385.073,248.22c0-10.589-6.462-19.174-14.434-19.174c-7.972,0-14.434,8.584-14.434,19.174
		c0,10.589,6.462,11.957,14.434,11.957C378.611,260.175,385.073,258.809,385.073,248.22z"/>
	<path style="fill:#E0B775;" d="M155.793,248.22c0-10.589-6.462-19.174-14.434-19.174s-14.434,8.584-14.434,19.174
		c0,10.589,6.462,11.957,14.434,11.957C149.331,260.175,155.793,258.809,155.793,248.22z"/>
</g>
<path style="fill:#F9D387;" d="M371.344,211.955v66.741c0,12.602-1.654,24.793-4.741,36.296c-1.132,4.23-2.443,8.35-3.964,12.369
	c-12.524,33.676-37.706,60.101-68.995,72.037c-0.733,0.289-1.466,0.566-2.198,0.822c-11.17,4.008-23.083,6.151-35.441,6.151
	c-12.369,0-24.283-2.143-35.441-6.151c-0.744-0.255-1.477-0.533-2.21-0.822c-23.239-8.86-43.091-25.715-56.915-47.61
	c-4.797-7.583-8.86-15.766-12.08-24.427c-1.521-4.019-2.831-8.139-3.953-12.369c-3.098-11.503-4.752-23.694-4.752-36.296v-66.741
	c0-40.215,16.799-76.079,43.047-99.473c19.775-17.643,44.923-28.202,72.303-28.202c31.844,0,60.678,14.29,81.552,37.406
	C358.431,144.781,371.344,176.702,371.344,211.955z"/>
<g>
	<path style="fill:#4D4D4D;" d="M320.205,245.043v22.512c0,4.213-3.408,7.62-7.62,7.62c-4.064,0-7.381-3.179-7.6-7.193
		c-0.01-0.139-0.01-0.289-0.01-0.427v-22.512c0-4.213,3.408-7.62,7.61-7.62c2.106,0,4.014,0.854,5.384,2.225
		c0.984,0.984,1.699,2.235,2.026,3.626C320.135,243.84,320.205,244.437,320.205,245.043z"/>
	<path style="fill:#4D4D4D;" d="M199.41,275.173L199.41,275.173c-4.206,0-7.617-3.41-7.617-7.617v-22.518
		c0-4.206,3.41-7.617,7.617-7.617l0,0c4.206,0,7.617,3.41,7.617,7.617v22.518C207.026,271.764,203.617,275.173,199.41,275.173z"/>
</g>
<g>
	<path style="fill:#68635B;" d="M331.096,217.437c0-10.22-8.285-18.506-18.506-18.506s-18.506,8.285-18.506,18.506l0,0
		C304.305,207.217,320.876,207.217,331.096,217.437L331.096,217.437z"/>
	<path style="fill:#68635B;" d="M217.915,217.437c0-10.22-8.285-18.506-18.506-18.506c-10.22,0-18.506,8.285-18.506,18.506l0,0
		C191.125,207.217,207.695,207.217,217.915,217.437L217.915,217.437z"/>
</g>
<g>
	<path style="fill:#666666;" d="M320.201,245.043v22.512c0,4.213-3.408,7.62-7.62,7.62c-4.064,0-7.381-3.179-7.6-7.193
		c8.524-8.763,12.845-18.11,15.01-24.707C320.131,243.84,320.201,244.437,320.201,245.043z"/>
	<path style="fill:#666666;" d="M207.02,245.043v22.512c0,4.213-3.408,7.62-7.62,7.62c-4.064,0-7.381-3.179-7.6-7.193
		c8.524-8.763,12.845-18.11,15.01-24.707C206.95,243.84,207.02,244.437,207.02,245.043z"/>
</g>
<path style="fill:#E0B775;" d="M274.089,298.675c0-0.567-0.114-1.121-0.331-1.658c-2.302-5.685-3.93-11.609-3.882-17.743
	c0.006-0.685,0.008-1.383,0.008-2.095c0-34.249-6.216-54.758-13.882-54.758c-7.667,0-13.882,20.51-13.882,54.758
	c0,0.712,0.002,1.41,0.008,2.095c0.049,6.133-1.581,12.058-3.882,17.743c-0.218,0.536-0.331,1.09-0.331,1.658
	c0,2.796,2.754,5.276,7.016,6.867c2.535,7.915,6.55,9.008,11.071,9.008s8.537-1.093,11.071-9.008
	C271.336,303.952,274.089,301.47,274.089,298.675z"/>
<path style="fill:#4D4D4D;" d="M297.417,332.599c-0.011,0.111-0.011,0.211-0.022,0.322c-0.044,0.633-0.111,1.266-0.211,1.888
	c-0.078,0.489-0.167,0.966-0.278,1.443c-0.078,0.344-0.167,0.688-0.255,1.033c-0.366,1.321-0.855,2.609-1.466,3.864
	c-1.943,4.064-5.063,7.728-9.071,10.77c-7.572,5.729-18.254,9.304-30.112,9.304c-11.858,0-22.539-3.575-30.112-9.304
	c-4.008-3.042-7.128-6.706-9.071-10.77c-0.611-1.255-1.099-2.543-1.466-3.864c-0.089-0.344-0.178-0.688-0.255-1.033
	c-0.111-0.477-0.2-0.955-0.278-1.443c-0.1-0.622-0.167-1.255-0.211-1.888c-0.011-0.111-0.011-0.211-0.022-0.322
	c1.454,0.289,2.931,0.566,4.441,0.822c11.159,1.932,23.705,3.009,36.973,3.009c13.268,0,25.815-1.077,36.973-3.009
	C294.486,333.165,295.962,332.887,297.417,332.599z"/>
<path style="fill:#F2F2F2;" d="M297.417,332.599c-0.011,0.111-0.011,0.211-0.022,0.322c-0.044,0.633-0.111,1.266-0.211,1.888
	c-0.078,0.489-0.167,0.966-0.278,1.443c-0.078,0.344-0.167,0.688-0.255,1.033c-0.366,1.321-0.855,2.609-1.466,3.864
	c-3.997,0.622-8.161,1.155-12.458,1.577c-8.449,0.844-17.421,1.288-26.725,1.288c-9.304,0-18.276-0.444-26.725-1.288
	c-4.297-0.422-8.461-0.955-12.458-1.577c-0.611-1.255-1.099-2.543-1.466-3.864c-0.089-0.344-0.178-0.688-0.255-1.033
	c-0.111-0.477-0.2-0.955-0.278-1.443c-0.1-0.622-0.167-1.255-0.211-1.888c-0.011-0.111-0.011-0.211-0.022-0.322
	c1.454,0.289,2.931,0.566,4.441,0.822c11.159,1.932,23.705,3.009,36.973,3.009s25.815-1.077,36.973-3.009
	C294.486,333.165,295.962,332.887,297.417,332.599z"/>
<path style="fill:#FFFFFF;" d="M292.976,333.42c-1.81,2.587-4.13,4.952-6.862,7.028c-1.066,0.811-2.198,1.577-3.386,2.276
	c-8.449,0.844-17.421,1.288-26.725,1.288c-9.304,0-18.276-0.444-26.725-1.288c-1.188-0.699-2.321-1.466-3.386-2.276
	c-2.731-2.076-5.052-4.441-6.862-7.028c11.159,1.932,23.705,3.009,36.973,3.009C269.271,336.429,281.817,335.352,292.976,333.42z"/>
<g>
	<path style="fill:#EFC881;" d="M277.766,370.073c0-4.541-9.743,0.484-21.763,0.484s-21.763-5.024-21.763-0.484
		s9.743,8.222,21.763,8.222C268.021,378.295,277.766,374.614,277.766,370.073z"/>
	<path style="fill:#EFC881;" d="M161.096,309.141l-0.155-1.189c-1.619-12.394-8.703-23.084-18.896-28.517l-1.389-0.741
		c0,12.608,1.651,24.795,4.744,36.301c1.127,4.223,2.438,8.343,3.958,12.361c12.531,33.675,37.709,60.11,68.997,72.036
		c-6.144-27.8-20.859-50.567-39.985-62.658C169.107,330.878,162.623,320.831,161.096,309.141z"/>
	<path style="fill:#EFC881;" d="M351.06,307.952l-0.155,1.189c-1.527,11.689-8.011,21.737-17.276,27.595
		c-19.125,12.091-33.84,34.858-39.985,62.658c31.287-11.926,56.466-38.361,68.997-72.036c1.52-4.019,2.831-8.14,3.958-12.361
		c3.093-11.505,4.744-23.693,4.744-36.301l-1.389,0.741C359.763,284.868,352.68,295.559,351.06,307.952z"/>
</g>
<path style="fill:#68635B;" d="M256.008,152.424c0,0,31.742,64.419,114.642,76.621c56.085,8.255,6.129-70.892-32.057-122.959
	c-18.936-25.819-53.356-34.87-82.588-21.807l0,0l0,0c-29.232-13.064-63.653-4.013-82.588,21.807
	c-38.186,52.067-88.141,131.214-32.057,122.959c82.9-12.202,114.642-76.621,114.642-76.621"/>
<path style="fill:#E0B775;" d="M484.275,371.966c-6.928,13.612-15.045,26.536-24.205,38.605l-15.522-15.533
	c-5.008-5.008-5.008-13.124,0-18.142l13.257-13.257c5.019-5.008,13.135-5.008,18.142,0L484.275,371.966z"/>
<path style="fill:#518EBC;" d="M504.194,234.576c-2.276-0.644-4.541-1.277-6.817-1.921c-6.096-1.721-12.18-3.442-18.276-5.152
	c-8.794-2.487-17.587-4.963-26.381-7.439c-2.42-0.677-4.841-1.366-7.261-2.043c0-0.011,0-0.011,0-0.011
	c-8.016-2.254-16.022-4.508-24.038-6.773c-11.003-3.109-21.995-6.207-32.998-9.304c-10.492-2.965-20.974-5.918-31.466-8.871
	c-8.927-2.52-17.854-5.041-26.781-7.561c-6.24-1.754-12.48-3.52-18.731-5.274c-1.765-0.5-3.542-0.999-5.307-1.499
	c-0.455-0.133-1.632-0.722-2.11-0.6c-0.133,0.033-0.278,0.311-0.378,0.433c-0.844,1.01-1.677,2.032-2.509,3.064
	c-1.566,1.965-3.098,3.964-4.586,5.996c-2.998,4.097-5.829,8.305-8.483,12.624c-5.385,8.794-10.026,18.031-13.868,27.602
	c-6.84,17.088-11.159,35.197-12.702,53.539c-1.388,16.555-0.511,33.287,2.598,49.609c3.053,16.055,8.261,31.699,15.422,46.4
	c3.72,7.617,7.95,14.989,12.68,22.029c4.341,6.495,9.105,12.713,14.245,18.609c5.374,6.162,11.148,11.969,17.299,17.365
	c7.495,6.562,17.487,9.76,27.402,8.505c8.15-1.033,16.31-3.198,24.149-5.585c7.783-2.376,15.411-5.263,22.817-8.627
	c14.778-6.74,28.668-15.422,41.193-25.759c12.646-10.448,23.894-22.584,33.332-35.996c9.737-13.857,17.532-29.057,23.128-45.045
	c6.651-19.009,10.226-39.083,10.437-59.213C506.314,253.94,505.637,244.202,504.194,234.576z M304.537,270.006
	c1.976-7.006,9.338-10.837,16.244-8.916c3.486,0.977,6.973,1.976,10.47,2.953c8.638,2.443,17.31,4.785,25.926,7.317
	c3.409,0.999,6.296,3.253,7.972,6.406c1.665,3.131,2.276,7.672,0.555,10.925c-1.21,2.298-3.242-0.966-4.053-1.999
	c-1.921-2.432-4.03-4.941-7.106-5.874c-8.416-2.554-16.932-4.774-25.393-7.161c-3.642-1.033-7.273-2.065-10.925-3.076
	c-2.187-0.622-4.364-0.4-6.54,0.211c-1.477,0.422-2.887,0.999-4.33,1.499c-0.688,0.233-1.976,0.811-2.687,0.344
	C303.882,272.127,304.349,270.694,304.537,270.006z M407.763,366.115c-4.519,6.284-11.792,10.392-18.864,13.146
	c-7.472,2.909-15.877,3.609-23.805,2.731c-10.248-1.121-20.519-5.274-28.69-11.869c-4.586-3.686-8.516-8.15-11.403-13.279
	c-3.542-6.307-6.073-13.479-5.618-20.818c4.83,2.221,9.304,5.196,14.101,7.517c6.129,2.953,12.291,5.651,18.631,8.094
	c1.621,0.622,3.264,1.21,4.908,1.754c5.03,1.665,10.182,2.998,15.344,4.164c6.584,1.488,13.401,2.554,20.141,3.042
	c3.553,0.266,7.15,0.833,10.714,0.866c2.487,0.011,4.974-0.033,7.439,0.3C409.806,363.283,408.807,364.716,407.763,366.115z
	 M455.795,315.24c-0.955-0.477-1.677-1.654-2.309-2.454c-0.999-1.266-2.01-2.543-3.198-3.642c-1.177-1.099-2.543-2.043-4.108-2.487
	c-8.327-2.354-16.666-4.697-25.004-7.05c-3.742-1.055-7.472-2.11-11.214-3.164c-0.278-0.078-0.544-0.144-0.822-0.2
	c-1.832-0.344-3.642-0.189-5.474,0.3c-1.466,0.389-2.887,0.955-4.319,1.466c-0.755,0.266-2.065,0.899-2.876,0.544
	c-0.922-0.389-0.544-1.743-0.355-2.476c0.489-1.91,1.443-3.708,2.731-5.196c2.576-2.987,6.484-4.674,10.426-4.486
	c1.899,0.089,3.842,0.6,5.74,1.188c1.343,0.4,2.676,0.844,3.953,1.199c9.604,2.709,19.219,5.418,28.824,8.128
	c1.688,0.477,3.309,1.033,4.785,2.021c3.309,2.221,5.452,5.962,5.707,9.937C458.36,309.944,458.16,316.417,455.795,315.24z"/>
<path style="fill:#F9D387;" d="M476.48,386.133c-4.996,8.472-10.481,16.632-16.41,24.438c-3.131,4.13-6.384,8.15-9.76,12.069
	c-0.522-0.433-1.021-0.888-1.499-1.366l-19.186-19.186c-5.008-5.019-5.008-13.135,0-18.142l13.257-13.268
	c5.008-5.008,13.135-5.008,18.142,0L476.48,386.133z"/>
<path style="fill:#5D9BC1;" d="M506.203,263.677c-0.211,20.13-3.786,40.204-10.437,59.213c-5.596,15.988-13.39,31.189-23.128,45.045
	c-9.438,13.413-20.685,25.548-33.332,35.996c-12.524,10.337-26.414,19.02-41.193,25.759c-7.406,3.364-15.034,6.251-22.817,8.627
	c-7.839,2.387-16,4.552-24.149,5.585c-9.915,1.255-19.908-1.943-27.402-8.505c-6.151-5.396-11.925-11.203-17.299-17.365
	c-5.141-5.896-9.904-12.113-14.245-18.609c16.41-9.538,31.089-19.375,44.201-29.301c8.172,6.595,18.442,10.748,28.69,11.869
	c7.928,0.877,16.333,0.178,23.805-2.731c7.073-2.754,14.345-6.862,18.864-13.146c1.044-1.399,2.043-2.831,2.898-4.352
	c-2.465-0.333-4.952-0.289-7.439-0.3c-3.564-0.033-7.162-0.6-10.714-0.866c-6.74-0.489-13.557-1.554-20.141-3.042
	c-5.163-1.166-10.315-2.498-15.345-4.164c22.584-19.664,39.494-39.25,52.118-57.148c0.278,0.056,0.544,0.122,0.822,0.2
	c3.742,1.055,7.472,2.11,11.214,3.164c8.338,2.354,16.677,4.697,25.004,7.05c1.566,0.444,2.931,1.388,4.108,2.487
	c1.188,1.099,2.198,2.376,3.198,3.642c0.633,0.799,1.355,1.976,2.309,2.454c2.365,1.177,2.565-5.296,2.487-6.373
	c-0.255-3.975-2.398-7.717-5.707-9.937c-1.477-0.988-3.098-1.543-4.785-2.021c-9.604-2.709-19.219-5.418-28.824-8.128
	c-1.277-0.355-2.609-0.799-3.953-1.199c25.659-39.427,30.334-68.828,30.445-69.561c2.42,0.677,4.841,1.366,7.261,2.043
	c8.794,2.476,17.587,4.952,26.381,7.439c6.096,1.71,12.18,3.431,18.276,5.152c2.276,0.644,4.541,1.277,6.817,1.921
	C505.637,244.202,506.314,253.94,506.203,263.677z"/>
<g>
</g>
<g>
</g>
<g>
</g>
<g>
</g>
<g>
</g>
<g>
</g>
<g>
</g>
<g>
</g>
<g>
</g>
<g>
</g>
<g>
</g>
<g>
</g>
<g>
</g>
<g>
</g>
<g>
</g>
</svg>
