<?xml version="1.0"?>
<svg xmlns="http://www.w3.org/2000/svg" viewBox="0 0 512 512" width="512" height="512"><g id="FilledOutline"><path d="M345.092,297.727,288,312l-57.092-14.273A93.612,93.612,0,0,1,160,206.91V24H416V206.91A93.612,93.612,0,0,1,345.092,297.727Z" style="fill:#85bb40"/><path d="M448,224l-40-40a45.255,45.255,0,0,1,0-64h0L372,84a16.971,16.971,0,0,1,0-24h0a16.971,16.971,0,0,1,24,0l20,20V48h32a24,24,0,0,1,24,24v72l24,24Z" style="fill:#f7c9a8"/><path d="M166.908,473.727,224,488l57.092-14.273A93.612,93.612,0,0,0,352,382.91V200H96V382.91A93.612,93.612,0,0,0,166.908,473.727Z" style="fill:#0093b9"/><path d="M64,424l40-40a45.255,45.255,0,0,0,0-64h0l36-36a16.971,16.971,0,0,0,0-24h0a16.971,16.971,0,0,0-24,0L96,280V248H64a24,24,0,0,0-24,24v72L16,368Z" style="fill:#f7c9a8"/><path d="M376,382.91a117.294,117.294,0,0,1-52.428,97.943l8.856,13.326A133.26,133.26,0,0,0,392,382.91V344H376Z"/><path d="M360,382.91V200a8,8,0,0,0-8-8H96a8,8,0,0,0-8,8v40H64a32.036,32.036,0,0,0-32,32v68.687L10.343,362.343l11.314,11.314,24-24A8,8,0,0,0,48,344V272a16.019,16.019,0,0,1,16-16H88v20.687L74.343,290.343l11.314,11.314,36-36a8.97,8.97,0,1,1,12.686,12.686l-36,36a8,8,0,0,0,0,11.314,37.3,37.3,0,0,1,0,52.686l-40,40,11.314,11.314L91.18,408.134a101.832,101.832,0,0,0,73.787,73.354l57.093,14.273a7.993,7.993,0,0,0,3.88,0l57.093-14.273A101.465,101.465,0,0,0,360,382.91ZM344,208v16H104V208ZM279.152,465.966,224,479.754l-55.152-13.788a85.76,85.76,0,0,1-64.061-71.44l4.87-4.869a53.282,53.282,0,0,0,5.238-69.238l30.762-30.762a24.971,24.971,0,0,0-35.314-35.314L104,260.687V240H344V382.91A85.49,85.49,0,0,1,279.152,465.966Z"/><path d="M280,304a24.028,24.028,0,0,1-24-24H240a40,40,0,0,0,80,0H304A24.028,24.028,0,0,1,280,304Z"/><path d="M224,352c-55.977,0-69.379,36.569-72.385,58.368A17.074,17.074,0,0,0,180.432,424.9C192.04,413.684,206.7,408,224,408s31.96,5.684,43.568,16.895a16.981,16.981,0,0,0,11.841,4.854,17.263,17.263,0,0,0,7.829-1.9,16.8,16.8,0,0,0,9.147-17.481C293.379,388.569,279.977,352,224,352Zm55.993,61.583a1.007,1.007,0,0,1-1.31-.2C264.2,399.4,245.288,392,224,392s-40.2,7.395-54.683,21.386a1.009,1.009,0,0,1-1.31.2.858.858,0,0,1-.543-1.029C171.542,382.99,190.563,368,224,368s52.458,14.99,56.536,44.554A.858.858,0,0,1,279.993,413.583Z"/><path d="M208,280H192a24.008,24.008,0,0,1-35.994,20.794l-8.012,13.849A40.007,40.007,0,0,0,208,280Z"/><rect x="376" y="312" width="16" height="16"/><path d="M480,140.687V72a32.036,32.036,0,0,0-32-32H424V24a8,8,0,0,0-8-8H160a8,8,0,0,0-8,8V176h16V64H344V48H168V32H408V60.687l-6.343-6.344a24.971,24.971,0,1,0-35.314,35.314l30.762,30.762a53.282,53.282,0,0,0,5.238,69.238L408,195.313v11.6A85.7,85.7,0,0,1,371.417,277.1l9.166,13.114a101.712,101.712,0,0,0,43.315-79l18.445,18.446,11.314-11.314-40-40a37.3,37.3,0,0,1,0-52.686,8,8,0,0,0,0-11.314l-36-36a8.97,8.97,0,1,1,12.686-12.686l36,36,11.314-11.314L424,76.687V56h24a16.019,16.019,0,0,1,16,16v72a8,8,0,0,0,2.343,5.657l24,24,11.314-11.314Z"/><path d="M232,120a24.028,24.028,0,0,1,24,24h16a40,40,0,0,0-80,0h16A24.028,24.028,0,0,1,232,120Z"/><path d="M344,120a24.1,24.1,0,0,1,20.794,12.006l13.85-8.012A40,40,0,0,0,304,144h16A24.027,24.027,0,0,1,344,120Z"/><rect x="120" y="56" width="16" height="88"/></g></svg>
